# xmcd CD database file
#
# Track frame offsets:
#	150
#	12933
#	33312
#	51764
#	69397
#	93917
#	112539
#	131766
#	157336
#	179653
#	201615
#	217406
#
# Disc length: 3131 seconds
#
# Revision: 0
# Processed by: cddbd v1.5.2PL0 Copyright (c) Steve Scherf et al.
# Submitted via: CDex 1.51
#
DISCID=b20c390c
DTITLE=Wes Lee - Wes Lee - Live and Alone
DYEAR=1900
DGENRE=Blues
TTITLE0=Wes Lee - Comin Home
TTITLE1=Wes Lee - Tilt a Whirl
TTITLE2=Wes Lee - It's a Good Day for the Blues
TTITLE3=Wes Lee - Such and Such
TTITLE4=Wes Lee - State of Mind
TTITLE5=Wes Lee - Backbone Slip
TTITLE6=Wes Lee - Help Me Up
TTITLE7=Wes Lee - The Richest One
TTITLE8=Wes Lee - Tryin to Get Over You
TTITLE9=Wes Lee - Angel City
TTITLE10=Wes Lee - Dance with the Stars Tonight
TTITLE11=Wes Lee - Angel Eyes
EXTD=
EXTT0=
EXTT1=
EXTT2=
EXTT3=
EXTT4=
EXTT5=
EXTT6=
EXTT7=
EXTT8=
EXTT9=
EXTT10=
EXTT11=
PLAYORDER=
